<svg width="59" height="59" viewBox="0 0 59 59" fill="none" xmlns="http://www.w3.org/2000/svg">
<rect width="59" height="59" rx="12" fill="url(#paint0_linear_213_299)"/>
<mask id="mask0_213_299" style="mask-type:alpha" maskUnits="userSpaceOnUse" x="10" y="10" width="39" height="39">
<rect x="10" y="10" width="39" height="39" fill="#D9D9D9"/>
</mask>
<g mask="url(#mask0_213_299)">
<path d="M32.75 42.5C30.9625 42.5 29.4323 41.8635 28.1594 40.5906C26.8865 39.3177 26.25 37.7875 26.25 36C26.25 34.2125 26.8865 32.6823 28.1594 31.4094C29.4323 30.1365 30.9625 29.5 32.75 29.5C33.3729 29.5 33.9484 29.5745 34.4766 29.7234C35.0047 29.8724 35.5125 30.0958 36 30.3938V16.5H45.75V21.375H39.25V36C39.25 37.7875 38.6135 39.3177 37.3406 40.5906C36.0677 41.8635 34.5375 42.5 32.75 42.5ZM13.25 36C13.25 33.3188 13.7646 30.7932 14.7937 28.4234C15.8229 26.0536 17.2177 23.9885 18.9781 22.2281C20.7385 20.4677 22.8036 19.0729 25.1734 18.0437C27.5432 17.0146 30.0688 16.5 32.75 16.5V19.75C30.5292 19.75 28.4302 20.1766 26.4531 21.0297C24.476 21.8828 22.7495 23.0474 21.2734 24.5234C19.7974 25.9995 18.6328 27.7193 17.7797 29.6828C16.9266 31.6464 16.5 33.7521 16.5 36H13.25ZM19.75 36C19.75 34.2125 20.0953 32.5266 20.7859 30.9422C21.4766 29.3578 22.4109 27.9766 23.5891 26.7984C24.7672 25.6203 26.1417 24.6927 27.7125 24.0156C29.2833 23.3385 30.9625 23 32.75 23V26.25C30.0417 26.25 27.7396 27.1979 25.8438 29.0938C23.9479 30.9896 23 33.2917 23 36H19.75Z" fill="white"/>
</g>
<defs>
<linearGradient id="paint0_linear_213_299" x1="59" y1="0.223482" x2="3.31898e-06" y2="55.8712" gradientUnits="userSpaceOnUse">
<stop stop-color="#82B1FF"/>
<stop offset="1" stop-color="#5A38FD"/>
</linearGradient>
</defs>
</svg>
