<svg width="347" height="70" viewBox="0 0 347 70" fill="none" xmlns="http://www.w3.org/2000/svg">
<path d="M43.5833 63.2917C39.6706 63.2917 36.3349 61.9122 33.5763 59.153C30.8171 56.3943 29.4375 53.0586 29.4375 49.1459C29.4375 45.2818 30.8171 41.9583 33.5763 39.1753C36.3349 36.3918 39.6706 35.0001 43.5833 35.0001C44.3767 35.0001 45.1097 35.0487 45.7825 35.1459C46.4553 35.2431 47.132 35.389 47.8125 35.5834V9.55216H71.0729V22.1667H57.7292V49.1459C57.7292 53.0586 56.3374 56.3943 53.554 59.153C50.771 61.9122 47.4474 63.2917 43.5833 63.2917ZM0.927094 48.0522C0.927094 42.3647 2.02084 37.0053 4.20834 31.974C6.39584 26.9428 9.36866 22.5469 13.1268 18.7863C16.8849 15.0253 21.2832 12.06 26.3218 9.89049C31.3598 7.72049 36.7491 6.63549 42.4896 6.63549V14.2917C37.8361 14.2917 33.447 15.1689 29.3223 16.9233C25.1972 18.6782 21.605 21.0859 18.5459 24.1464C15.4869 27.2075 13.0738 30.7891 11.3068 34.8914C9.53977 38.9937 8.65626 43.3806 8.65626 48.0522H0.927094ZM15.2188 48.0522C15.2188 44.3091 15.9358 40.7848 17.3698 37.4792C18.8038 34.1737 20.7621 31.2908 23.2447 28.8306C25.7273 26.3709 28.6196 24.4143 31.9218 22.9608C35.2239 21.5078 38.7465 20.7813 42.4896 20.7813V28.4376C37.0048 28.4376 32.3644 30.3353 28.5683 34.1309C24.7728 37.9269 22.875 42.5674 22.875 48.0522H15.2188Z" fill="#FEFFDA"/>
<path d="M94.232 11.2C99.864 11.2 104.493 12.352 108.12 14.656C111.747 16.9173 113.603 20.288 113.688 24.768V25.536H100.44V25.28C100.44 24 99.9707 22.9333 99.032 22.08C98.0933 21.2267 96.664 20.8 94.744 20.8C92.8667 20.8 91.416 21.0773 90.392 21.632C89.4107 22.1867 88.92 22.8693 88.92 23.68C88.92 24.832 89.6027 25.6853 90.968 26.24C92.3333 26.7947 94.5307 27.3707 97.56 27.968C101.101 28.6933 104.003 29.4613 106.264 30.272C108.568 31.04 110.573 32.32 112.28 34.112C113.987 35.904 114.861 38.336 114.904 41.408C114.904 46.6133 113.133 50.4747 109.592 52.992C106.093 55.5093 101.4 56.768 95.512 56.768C88.6427 56.768 83.288 55.616 79.448 53.312C75.6507 51.008 73.752 46.9333 73.752 41.088H87.128C87.128 43.3067 87.704 44.8 88.856 45.568C90.008 46.2933 91.8 46.656 94.232 46.656C96.024 46.656 97.496 46.464 98.648 46.08C99.8427 45.696 100.44 44.9067 100.44 43.712C100.44 42.6453 99.7787 41.856 98.456 41.344C97.176 40.7893 95.064 40.2133 92.12 39.616C88.536 38.848 85.5707 38.0587 83.224 37.248C80.8773 36.3947 78.8293 35.008 77.08 33.088C75.3307 31.168 74.456 28.5653 74.456 25.28C74.456 20.4587 76.312 16.9173 80.024 14.656C83.7787 12.352 88.5147 11.2 94.232 11.2Z" fill="#FEFFDA"/>
<path d="M139.459 21.44C144.025 21.44 147.545 22.9333 150.02 25.92C152.494 28.9067 153.731 33.3227 153.731 39.168C153.731 44.9707 152.494 49.3653 150.02 52.352C147.545 55.296 144.025 56.768 139.459 56.768C135.534 56.768 132.377 55.488 129.987 52.928V68.608H117.251V22.208H127.619L128.707 27.008C131.182 23.296 134.766 21.44 139.459 21.44ZM135.491 30.848C133.614 30.848 132.206 31.5093 131.267 32.832C130.329 34.1547 129.859 35.8827 129.859 38.016V40.128C129.859 42.2613 130.329 44.0107 131.267 45.376C132.206 46.6987 133.614 47.36 135.491 47.36C139.161 47.36 140.995 45.1627 140.995 40.768V37.376C140.995 33.024 139.161 30.848 135.491 30.848Z" fill="#FEFFDA"/>
<path d="M173.507 21.44C179.438 21.44 184.088 22.9547 187.459 25.984C190.872 28.9707 192.579 33.344 192.579 39.104C192.579 44.864 190.872 49.2587 187.459 52.288C184.088 55.2747 179.438 56.768 173.507 56.768C167.576 56.768 162.926 55.2747 159.555 52.288C156.184 49.3013 154.499 44.9067 154.499 39.104C154.499 33.3013 156.184 28.9067 159.555 25.92C162.926 22.9333 167.576 21.44 173.507 21.44ZM173.507 30.08C169.326 30.08 167.235 32.4907 167.235 37.312V40.96C167.235 45.7387 169.326 48.128 173.507 48.128C177.731 48.128 179.843 45.7387 179.843 40.96V37.312C179.843 32.4907 177.731 30.08 173.507 30.08Z" fill="#FEFFDA"/>
<path d="M217.41 22.208V30.848H210.242V43.712C210.242 45.248 210.498 46.3787 211.01 47.104C211.522 47.7867 212.461 48.128 213.826 48.128H217.41V55.616C216.386 55.9573 215.064 56.2347 213.443 56.448C211.821 56.6613 210.413 56.768 209.218 56.768C205.464 56.768 202.562 56.0853 200.514 54.72C198.509 53.3547 197.507 51.0293 197.507 47.744V30.848H192.77V22.208H198.018L200.77 11.968H210.242V22.208H217.41Z" fill="#FEFFDA"/>
<path d="M219.928 18.24V9.6H232.664V18.24H219.928ZM219.928 56V22.208H232.664V56H219.928Z" fill="#FEFFDA"/>
<path d="M258.84 11.2C265.368 11.2 270.531 12.8427 274.328 16.128C278.126 19.3707 280.025 24.0213 280.025 30.08H266.521C266.521 27.52 265.838 25.4933 264.473 24C263.15 22.5067 261.251 21.76 258.776 21.76C255.918 21.76 253.806 22.656 252.44 24.448C251.118 26.24 250.456 28.736 250.456 31.936V36.032C250.456 39.1893 251.118 41.6853 252.44 43.52C253.806 45.312 255.875 46.208 258.648 46.208C261.379 46.208 263.449 45.504 264.857 44.096C266.265 42.688 266.969 40.704 266.969 38.144H280.025C280.025 44.16 278.169 48.768 274.457 51.968C270.787 55.168 265.582 56.768 258.84 56.768C251.331 56.768 245.635 54.848 241.753 51.008C237.913 47.168 235.992 41.4933 235.992 33.984C235.992 26.4747 237.913 20.8 241.753 16.96C245.635 13.12 251.331 11.2 258.84 11.2Z" fill="#FEFFDA"/>
<path d="M303.469 21.376C304.45 21.376 305.325 21.504 306.093 21.76C306.861 21.9733 307.245 22.1013 307.245 22.144V32.832H303.149C300.504 32.832 298.584 33.5147 297.389 34.88C296.237 36.2453 295.661 38.272 295.661 40.96V56H282.925V22.208H293.357L294.189 27.328C294.957 25.3653 296.173 23.8933 297.837 22.912C299.501 21.888 301.378 21.376 303.469 21.376Z" fill="#FEFFDA"/>
<path d="M334.442 54.976C332.693 59.712 330.538 63.296 327.978 65.728C325.461 68.2027 321.919 69.44 317.354 69.44C314.581 69.44 312.127 69.056 309.994 68.288V60.672H315.114C318.314 60.672 320.213 59.1147 320.81 56L307.37 22.208H321.066L327.53 44.672H327.978L333.93 22.208H346.474L334.442 54.976Z" fill="#FEFFDA"/>
</svg>
