<svg width="250" height="80" viewBox="0 0 250 80" fill="none" xmlns="http://www.w3.org/2000/svg">
<rect x="10" y="10.5" width="59" height="59" rx="12" fill="url(#paint0_linear_213_271)"/>
<mask id="mask0_213_271" style="mask-type:alpha" maskUnits="userSpaceOnUse" x="20" y="20" width="39" height="40">
<rect x="20" y="20.5" width="39" height="39" fill="#D9D9D9"/>
</mask>
<g mask="url(#mask0_213_271)">
<path d="M42.75 53C40.9625 53 39.4323 52.3635 38.1594 51.0906C36.8865 49.8177 36.25 48.2875 36.25 46.5C36.25 44.7125 36.8865 43.1823 38.1594 41.9094C39.4323 40.6365 40.9625 40 42.75 40C43.3729 40 43.9484 40.0745 44.4766 40.2234C45.0047 40.3724 45.5125 40.5958 46 40.8938V27H55.75V31.875H49.25V46.5C49.25 48.2875 48.6135 49.8177 47.3406 51.0906C46.0677 52.3635 44.5375 53 42.75 53ZM23.25 46.5C23.25 43.8188 23.7646 41.2932 24.7937 38.9234C25.8229 36.5536 27.2177 34.4885 28.9781 32.7281C30.7385 30.9677 32.8036 29.5729 35.1734 28.5437C37.5432 27.5146 40.0688 27 42.75 27V30.25C40.5292 30.25 38.4302 30.6766 36.4531 31.5297C34.476 32.3828 32.7495 33.5474 31.2734 35.0234C29.7974 36.4995 28.6328 38.2193 27.7797 40.1828C26.9266 42.1464 26.5 44.2521 26.5 46.5H23.25ZM29.75 46.5C29.75 44.7125 30.0953 43.0266 30.7859 41.4422C31.4766 39.8578 32.4109 38.4766 33.5891 37.2984C34.7672 36.1203 36.1417 35.1927 37.7125 34.5156C39.2833 33.8385 40.9625 33.5 42.75 33.5V36.75C40.0417 36.75 37.7396 37.6979 35.8438 39.5938C33.9479 41.4896 33 43.7917 33 46.5H29.75Z" fill="white"/>
</g>
<path d="M78.5703 46.2852L86.168 44.918C86.806 47.0664 88.4466 48.1406 91.0898 48.1406C93.1471 48.1406 94.1758 47.5938 94.1758 46.5C94.1758 45.9271 93.9349 45.4844 93.4531 45.1719C92.9844 44.8464 92.138 44.5599 90.9141 44.3125C86.2396 43.4141 83.2383 42.2422 81.9102 40.7969C80.582 39.3516 79.918 37.6523 79.918 35.6992C79.918 33.1862 80.8685 31.0964 82.7695 29.4297C84.6836 27.763 87.431 26.9297 91.0117 26.9297C96.4414 26.9297 100.029 29.1107 101.773 33.4727L94.9961 35.5234C94.293 33.7396 92.8672 32.8477 90.7188 32.8477C88.9349 32.8477 88.043 33.401 88.043 34.5078C88.043 35.0026 88.2448 35.3867 88.6484 35.6602C89.0521 35.9336 89.8333 36.194 90.9922 36.4414C94.1823 37.1185 96.4479 37.7174 97.7891 38.2383C99.1302 38.7591 100.25 39.651 101.148 40.9141C102.047 42.1641 102.496 43.6419 102.496 45.3477C102.496 48.043 101.402 50.2305 99.2148 51.9102C97.0273 53.5768 94.1562 54.4102 90.6016 54.4102C84.1042 54.4102 80.0938 51.7018 78.5703 46.2852ZM113.141 60.2695H105.348V34.1367H112.516V36.9492C113.518 34.8008 115.387 33.7266 118.121 33.7266C120.491 33.7266 122.346 34.651 123.688 36.5C125.029 38.3359 125.699 40.8424 125.699 44.0195C125.699 47.1966 125.009 49.7227 123.629 51.5977C122.262 53.4727 120.452 54.4102 118.199 54.4102C115.986 54.4102 114.299 53.5638 113.141 51.8711V60.2695ZM113.141 46.7344C113.141 47.6198 113.342 48.3099 113.746 48.8047C114.15 49.2865 114.651 49.5273 115.25 49.5273C116.188 49.5273 116.832 49.0977 117.184 48.2383C117.535 47.3659 117.711 46.0312 117.711 44.2344C117.711 42.1641 117.509 40.7122 117.105 39.8789C116.702 39.0326 116.096 38.6094 115.289 38.6094C114.807 38.6094 114.326 38.7982 113.844 39.1758C113.375 39.5534 113.141 40.1719 113.141 41.0312V46.7344ZM138.531 54.4102C135.237 54.4102 132.62 53.388 130.68 51.3438C128.74 49.2865 127.77 46.8776 127.77 44.1172C127.77 41.1484 128.779 38.6745 130.797 36.6953C132.828 34.7161 135.465 33.7266 138.707 33.7266C141.975 33.7266 144.599 34.7031 146.578 36.6562C148.57 38.6094 149.566 41.0573 149.566 44C149.566 46.9688 148.557 49.4492 146.539 51.4414C144.534 53.4206 141.865 54.4102 138.531 54.4102ZM138.648 49.6836C139.859 49.6836 140.595 49.0586 140.855 47.8086C141.129 46.5456 141.266 45.2305 141.266 43.8633C141.266 42.0013 141.077 40.6602 140.699 39.8398C140.322 39.0195 139.645 38.6094 138.668 38.6094C137.77 38.6094 137.112 39.0326 136.695 39.8789C136.279 40.7253 136.07 42.1185 136.07 44.0586C136.07 46.3372 136.285 47.8477 136.715 48.5898C137.145 49.319 137.789 49.6836 138.648 49.6836ZM164.879 34.1367V39.1953H160.914V46.5195C160.914 47.5221 161.103 48.1211 161.48 48.3164C161.858 48.4987 162.249 48.5898 162.652 48.5898C163.277 48.5898 164.02 48.4792 164.879 48.2578V53.8047C163.342 54.1042 161.832 54.2539 160.348 54.2539C157.952 54.2539 156.188 53.7396 155.055 52.7109C153.935 51.6823 153.375 50.0417 153.375 47.7891L153.395 45.4648V39.1953H150.426V34.1367H153.395L153.512 27.6719L160.914 27.5547V34.1367H164.879ZM175.289 26.5V32.6719H167.496V26.5H175.289ZM175.289 34.1367V54H167.496V34.1367H175.289ZM194.352 43.8242L201.832 44.2734C201.48 47.5417 200.27 50.0482 198.199 51.793C196.142 53.5378 193.609 54.4102 190.602 54.4102C186.982 54.4102 184.059 53.2122 181.832 50.8164C179.605 48.4206 178.492 45.1133 178.492 40.8945C178.492 36.7148 179.547 33.3424 181.656 30.7773C183.766 28.2122 186.708 26.9297 190.484 26.9297C194.013 26.9297 196.721 27.9062 198.609 29.8594C200.51 31.8125 201.585 34.4036 201.832 37.6328L194.195 38.043C194.195 36.2591 193.85 34.9701 193.16 34.1758C192.483 33.3815 191.682 32.9844 190.758 32.9844C188.18 32.9844 186.891 35.5755 186.891 40.7578C186.891 43.6615 187.223 45.6341 187.887 46.6758C188.564 47.7174 189.508 48.2383 190.719 48.2383C192.88 48.2383 194.091 46.7669 194.352 43.8242ZM212.027 54H204.566V34.1367H211.051V38.2383C211.793 35.2565 213.518 33.7656 216.227 33.7656C216.5 33.7656 216.878 33.7917 217.359 33.8438V40.7773C216.812 40.6471 216.324 40.582 215.895 40.582C213.316 40.582 212.027 42.0208 212.027 44.8984V54ZM239.176 34.1367L231.383 55.6602C230.784 57.2878 229.924 58.5573 228.805 59.4688C227.685 60.3932 225.96 60.8555 223.629 60.8555C223.069 60.8555 221.767 60.7969 219.723 60.6797V55.1523C220.738 55.3086 221.676 55.3867 222.535 55.3867C224.775 55.3867 225.895 54.8919 225.895 53.9023C225.895 53.5768 225.784 53.1276 225.562 52.5547L218.434 34.1367H226.773L230.055 44.7227L233.492 34.1367H239.176Z" fill="white"/>
<defs>
<linearGradient id="paint0_linear_213_271" x1="69" y1="10.7235" x2="10" y2="66.3712" gradientUnits="userSpaceOnUse">
<stop stop-color="#82B1FF"/>
<stop offset="1" stop-color="#5A38FD"/>
</linearGradient>
</defs>
</svg>
